<svg preserveAspectRatio="xMidYMid meet" viewBox="241.664 200.704 542.72 634.88" xmlns="http://www.w3.org/2000/svg" version="1.0" style="max-height: 500px" width="542.72" height="634.88">

<g stroke="none" fill="#ffffff" transform="translate(0.000000,1024.000000) scale(0.100000,-0.100000)">
<path d="M5865 8056 c-277 -92 -456 -264 -542 -521 -23 -69 -26 -97 -27 -210&#10;-1 -110 3 -142 23 -205 30 -97 59 -153 121 -235 28 -37 49 -69 47 -71 -2 -3&#10;-30 -11 -62 -20 -32 -8 -79 -24 -103 -35 -54 -23 -192 -115 -246 -164 l-40&#10;-36 91 -89 c74 -73 107 -98 177 -131 73 -35 98 -42 169 -46 100 -7 171 11 239&#10;59 45 32 113 107 104 115 -2 2 -32 -6 -67 -18 -88 -31 -221 -31 -299 -1 -65&#10;25 -162 82 -167 98 -5 14 127 81 197 99 77 21 153 19 246 -6 154 -42 255 -24&#10;347 60 93 86 119 230 63 345 -33 67 -65 95 -168 147 -101 51 -160 105 -198&#10;183 -95 196 -43 454 133 652 27 30 45 54 40 54 -4 -1 -39 -11 -78 -24z m-279&#10;-438 c-8 -64 -7 -101 6 -175 31 -183 117 -299 286 -387 52 -27 97 -57 107 -73&#10;23 -34 22 -102 0 -141 -63 -105 -203 -75 -355 78 -177 176 -226 399 -137 620&#10;25 61 84 160 96 160 3 0 2 -37 -3 -82z"/>
<path d="M6875 7840 c80 -158 69 -399 -23 -509 l-28 -34 -46 31 c-69 48 -175&#10;98 -259 123 -64 20 -99 23 -264 24 l-190 2 -71 46 c-40 25 -91 55 -114 67&#10;l-43 22 6 -76 c7 -101 25 -129 120 -189 l78 -50 88 12 c119 15 198 14 288 -5&#10;105 -21 165 -47 261 -111 180 -119 309 -343 320 -554 4 -82 2 -91 -32 -171&#10;-20 -46 -36 -95 -36 -109 0 -14 14 -65 30 -115 50 -145 61 -215 65 -406 l3&#10;-178 -29 0 c-16 0 -65 9 -109 21 -66 17 -87 18 -114 9 -44 -14 -66 -48 -66&#10;-104 0 -35 6 -50 29 -75 34 -36 47 -39 56 -12 14 44 79 33 91 -16 10 -40 -21&#10;-89 -74 -114 -41 -20 -54 -21 -168 -15 -120 7 -125 6 -147 -16 -14 -14 -31&#10;-56 -46 -110 -22 -83 -75 -184 -113 -215 -12 -11 -16 -5 -27 40 -32 140 -121&#10;260 -306 411 -56 47 -125 111 -153 142 -91 102 -142 227 -142 347 0 48 -4 62&#10;-25 82 -30 31 -84 34 -108 7 -23 -25 -23 -196 -1 -273 27 -92 94 -209 161&#10;-280 35 -37 63 -69 63 -71 0 -3 -21 -8 -47 -12 -60 -8 -180 -60 -258 -111 -79&#10;-53 -181 -158 -248 -256 -42 -60 -56 -76 -60 -62 -3 10 -13 54 -22 98 -78 362&#10;-324 718 -624 899 -431 261 -935 240 -1303 -53 -88 -70 -153 -142 -167 -184&#10;-12 -37 -41 -243 -41 -289 0 -28 5 -22 53 55 50 84 154 216 169 217 8 0 9 -2&#10;33 -135 9 -49 34 -144 56 -210 94 -283 230 -498 446 -706 461 -443 1112 -599&#10;1706 -408 184 59 493 234 550 310 14 20 20 50 24 130 l6 104 -67 -62 c-208&#10;-190 -518 -341 -780 -379 l-49 -7 7 49 c12 83 57 255 88 334 81 205 230 381&#10;388 458 177 87 295 79 400 -26 41 -41 63 -74 79 -117 30 -79 51 -192 51 -272&#10;l0 -65 67 37 c176 97 296 234 343 393 l13 42 81 0 c183 0 273 53 406 239 94&#10;132 92 122 81 418 -8 237 -11 265 -36 348 -53 172 -51 155 -22 227 55 139 56&#10;254 0 424 l-26 82 21 30 c64 89 109 273 97 391 -22 220 -123 388 -309 513 -23&#10;16 -44 28 -49 28 -4 0 4 -22 18 -50z m200 -426 c24 -112 16 -196 -29 -297&#10;l-21 -48 -45 63 -46 63 38 72 c20 40 45 108 54 153 10 44 21 77 26 72 4 -4 15&#10;-39 23 -78z m-3075 -1424 c388 -44 716 -286 900 -664 107 -219 147 -416 136&#10;-676 -5 -142 -25 -292 -39 -306 -3 -3 -63 -1 -134 6 -219 19 -393 69 -585 167&#10;-152 77 -265 161 -399 293 -195 194 -335 432 -409 695 -23 81 -50 250 -50 311&#10;l0 41 98 46 c139 66 190 79 382 96 8 0 53 -4 100 -9z"/>
<path d="M3635 5711 c-96 -20 -97 -24 -65 -152 27 -105 45 -149 62 -149 16 0&#10;160 58 171 69 5 5 -4 51 -18 102 -15 52 -31 105 -34 119 -9 31 -17 32 -116 11z"/>
<path d="M3815 5239 c-38 -23 -73 -46 -77 -52 -4 -6 3 -28 14 -49 34 -60 139&#10;-188 155 -188 18 0 143 110 143 126 0 17 -141 204 -154 204 -6 0 -42 -19 -81&#10;-41z"/>
<path d="M4205 4922 c-16 -11 -91 -104 -103 -128 -9 -18 -7 -25 11 -41 47 -43&#10;196 -135 214 -131 20 3 92 130 93 163 0 15 -26 36 -97 80 -115 71 -105 66&#10;-118 57z"/>
<path d="M4622 4708 c-19 -24 -55 -179 -45 -189 13 -13 262 -64 270 -55 9 8&#10;21 99 22 158 1 47 1 47 -36 54 -45 7 -161 32 -184 40 -9 2 -21 -1 -27 -8z"/>
<path d="M4995 7793 c-74 -7 -257 -44 -339 -69 -183 -57 -411 -190 -601 -351&#10;-124 -106 -371 -357 -464 -473 -213 -264 -384 -593 -460 -883 l-10 -39 32 26&#10;c18 14 66 49 107 76 70 47 77 55 99 113 51 133 165 345 249 462 192 267 512&#10;584 748 743 92 62 248 136 356 171 131 41 259 61 400 61 l117 0 36 72 c19 39&#10;33 74 30 76 -14 14 -205 24 -300 15z"/>
<path d="M6110 6523 c0 -19 49 -78 81 -98 29 -19 40 -33 45 -62 8 -46 35 -93&#10;64 -111 12 -7 53 -17 91 -21 43 -4 79 -14 95 -27 37 -27 100 -135 126 -216 12&#10;-37 23 -66 26 -64 8 8 -20 210 -39 284 -26 98 -62 164 -116 211 -49 44 -89 57&#10;-198 66 -44 4 -101 15 -127 25 -27 10 -48 16 -48 13z"/>
<path d="M2650 3650 l0 -80 235 0 235 0 -245 -285 -245 -285 0 -65 0 -65 390&#10;0 390 0 0 80 0 80 -250 0 c-137 0 -250 3 -250 8 0 4 33 45 73 92 39 47 147&#10;174 240 283 l167 198 0 59 0 60 -370 0 -370 0 0 -80z"/>
<path d="M3610 3451 c0 -252 2 -285 20 -344 30 -97 82 -157 175 -203 67 -33&#10;85 -38 174 -42 203 -10 329 55 400 207 l26 56 3 303 3 302 -100 0 -101 0 0&#10;-267 c0 -156 -4 -284 -11 -306 -43 -156 -278 -181 -359 -37 -25 45 -25 47 -28&#10;328 l-3 282 -100 0 -99 0 0 -279z"/>
<path d="M4680 3301 l0 -431 233 0 c281 0 382 10 454 46 151 74 161 287 18&#10;383 l-36 24 35 36 c44 45 56 78 56 147 0 67 -17 109 -61 151 -69 65 -83 68&#10;-406 71 l-293 3 0 -430z m510 261 c71 -35 77 -117 10 -157 -30 -17 -56 -21&#10;-177 -23 l-143 -4 0 101 0 101 138 0 c110 0 144 -3 172 -18z m14 -335 c49 -15&#10;78 -53 78 -102 0 -80 -66 -105 -278 -105 l-124 0 0 110 0 110 143 -1 c78 0&#10;160 -6 181 -12z"/>
<path d="M5710 3301 l0 -431 100 0 100 0 0 125 0 125 95 0 95 0 47 -72 c26&#10;-40 64 -97 85 -125 l39 -53 110 0 110 0 -97 141 c-89 130 -95 142 -78 152 10&#10;5 44 35 75 66 61 63 79 108 79 204 0 114 -63 212 -168 264 l-57 28 -267 3&#10;-268 3 0 -430z m421 268 c101 -16 156 -92 130 -180 -25 -82 -81 -107 -238&#10;-108 l-113 -1 0 143 c0 79 3 147 7 151 9 9 145 6 214 -5z"/>
<path d="M6992 3713 c-6 -10 -58 -125 -116 -255 -58 -130 -135 -300 -170 -377&#10;-36 -77 -72 -156 -80 -175 l-15 -36 104 0 103 0 38 90 38 90 212 0 211 0 33&#10;-77 c19 -43 38 -84 43 -90 10 -14 217 -19 216 -5 0 4 -89 196 -198 427 l-198&#10;420 -106 3 c-93 2 -107 1 -115 -15z m186 -340 l71 -163 -140 0 c-76 0 -139 3&#10;-139 8 -1 9 132 323 135 320 2 -2 34 -76 73 -165z"/>
<path d="M3620 2581 c-69 -21 -130 -72 -149 -124 -15 -39 -14 -131 3 -170 15&#10;-38 76 -94 122 -113 66 -27 172 -13 221 31 l28 24 -22 22 -21 22 -34 -24 c-44&#10;-32 -124 -33 -164 -3 -70 52 -90 124 -55 196 43 91 144 110 233 46 15 -11 21&#10;-9 40 9 21 22 21 23 4 42 -36 40 -142 61 -206 42z"/>
<path d="M4090 2375 l0 -205 35 0 35 0 0 205 0 205 -35 0 -35 0 0 -205z"/>
<path d="M4440 2376 l0 -206 36 0 37 0 -5 135 c-3 74 -1 135 3 135 5 0 59 -61&#10;120 -135 103 -124 115 -135 145 -135 l34 0 0 205 0 205 -37 0 -38 0 3 -140 c2&#10;-77 -1 -140 -5 -139 -4 0 -58 62 -118 137 -96 119 -115 137 -143 140 l-32 3 0&#10;-205z"/>
<path d="M5080 2375 l0 -205 161 0 160 0 -3 28 -3 27 -122 3 -123 3 0 59 0 60&#10;105 0 105 0 0 30 0 30 -105 0 -105 0 0 55 0 54 118 3 117 3 3 28 3 27 -155 0&#10;-156 0 0 -205z"/>
<path d="M5650 2375 l0 -205 35 0 34 0 3 138 3 137 66 -110 c87 -146 96 -148&#10;163 -26 88 158 86 158 86 -1 l0 -138 35 0 35 0 0 205 0 205 -33 0 c-31 0 -36&#10;-6 -114 -136 l-82 -136 -23 39 c-13 21 -51 82 -83 136 -56 91 -61 97 -92 97&#10;l-33 0 0 -205z"/>
<path d="M6498 2533 c-11 -26 -51 -117 -89 -202 -38 -84 -69 -155 -69 -158 0&#10;-2 17 -3 37 -1 33 3 38 7 51 46 l14 42 114 0 115 0 19 -45 c18 -41 22 -45 55&#10;-45 19 0 35 4 35 8 0 5 -40 96 -88 203 l-89 194 -42 3 c-41 3 -42 3 -63 -45z&#10;m103 -115 c19 -45 36 -85 37 -90 2 -4 -33 -8 -77 -8 -45 0 -81 3 -81 8 0 12&#10;75 172 81 172 3 0 21 -37 40 -82z"/>
</g>
</svg>